<svg width="786" height="733" viewBox="0 0 786 733" fill="none" xmlns="http://www.w3.org/2000/svg">
<g clip-path="url(#clip0_1_28)">
<path d="M707.363 654.473H681.182V680.633H707.363V654.473Z" fill="white"/>
<path d="M707.363 628.312H681.182V654.473H707.363V628.312Z" fill="white"/>
<path d="M707.363 602.105H681.182V628.312H707.363V602.105Z" fill="white"/>
<path d="M681.182 680.633H655V706.793H681.182V680.633Z" fill="white"/>
<path d="M681.182 654.473H655V680.633H681.182V654.473Z" fill="white"/>
<path d="M681.182 628.312H655V654.473H681.182V628.312Z" fill="white"/>
<path d="M681.182 602.105H655V628.312H681.182V602.105Z" fill="white"/>
<path d="M681.182 575.945H655V602.106H681.182V575.945Z" fill="white"/>
<path d="M681.182 549.738H655V575.898H681.182V549.738Z" fill="white"/>
<path d="M681.182 523.578H655V549.739H681.182V523.578Z" fill="white"/>
<path d="M655.001 680.633H628.772V706.793H655.001V680.633Z" fill="white"/>
<path d="M655.001 654.473H628.772V680.633H655.001V654.473Z" fill="white"/>
<path d="M655.001 628.312H628.772V654.473H655.001V628.312Z" fill="white"/>
<path d="M655.001 602.105H628.772V628.312H655.001V602.105Z" fill="white"/>
<path d="M655.001 575.945H628.772V602.106H655.001V575.945Z" fill="white"/>
<path d="M655.001 549.738H628.772V575.898H655.001V549.738Z" fill="white"/>
<path d="M655.001 523.578H628.772V549.739H655.001V523.578Z" fill="white"/>
<path d="M655.001 497.371H628.772V523.578H655.001V497.371Z" fill="white"/>
<path d="M655.001 471.211H628.772V497.371H655.001V471.211Z" fill="white"/>
<path d="M628.773 706.84H602.591V733.047H628.773V706.84Z" fill="white"/>
<path d="M628.773 680.633H602.591V706.793H628.773V680.633Z" fill="white"/>
<path d="M628.773 654.473H602.591V680.633H628.773V654.473Z" fill="white"/>
<path d="M628.773 628.312H602.591V654.473H628.773V628.312Z" fill="white"/>
<path d="M628.773 602.105H602.591V628.312H628.773V602.105Z" fill="white"/>
<path d="M628.773 575.945H602.591V602.106H628.773V575.945Z" fill="white"/>
<path d="M628.773 549.738H602.591V575.898H628.773V549.738Z" fill="white"/>
<path d="M628.773 523.578H602.591V549.739H628.773V523.578Z" fill="white"/>
<path d="M628.773 497.371H602.591V523.578H628.773V497.371Z" fill="white"/>
<path d="M628.773 471.211H602.591V497.371H628.773V471.211Z" fill="white"/>
<path d="M628.773 445.051H602.591V471.211H628.773V445.051Z" fill="white"/>
<path d="M628.773 418.844H602.591V445.051H628.773V418.844Z" fill="white"/>
<path d="M602.591 706.84H576.41V733.047H602.591V706.84Z" fill="white"/>
<path d="M602.591 680.633H576.41V706.793H602.591V680.633Z" fill="white"/>
<path d="M602.591 654.473H576.41V680.633H602.591V654.473Z" fill="white"/>
<path d="M602.591 628.312H576.41V654.473H602.591V628.312Z" fill="white"/>
<path d="M602.591 602.105H576.41V628.312H602.591V602.105Z" fill="white"/>
<path d="M602.591 575.945H576.41V602.106H602.591V575.945Z" fill="white"/>
<path d="M602.591 549.738H576.41V575.898H602.591V549.738Z" fill="white"/>
<path d="M602.591 523.578H576.41V549.739H602.591V523.578Z" fill="white"/>
<path d="M602.591 497.371H576.41V523.578H602.591V497.371Z" fill="white"/>
<path d="M602.591 471.211H576.41V497.371H602.591V471.211Z" fill="white"/>
<path d="M602.591 445.051H576.41V471.211H602.591V445.051Z" fill="white"/>
<path d="M602.591 418.844H576.41V445.051H602.591V418.844Z" fill="white"/>
<path d="M576.363 706.84H550.182V733.047H576.363V706.84Z" fill="white"/>
<path d="M576.363 680.633H550.182V706.793H576.363V680.633Z" fill="white"/>
<path d="M576.363 654.473H550.182V680.633H576.363V654.473Z" fill="white"/>
<path d="M576.363 628.312H550.182V654.473H576.363V628.312Z" fill="white"/>
<path d="M576.363 602.105H550.182V628.312H576.363V602.105Z" fill="white"/>
<path d="M576.363 575.945H550.182V602.106H576.363V575.945Z" fill="white"/>
<path d="M576.363 549.738H550.182V575.898H576.363V549.738Z" fill="white"/>
<path d="M576.363 523.578H550.182V549.739H576.363V523.578Z" fill="white"/>
<path d="M576.363 497.371H550.182V523.578H576.363V497.371Z" fill="white"/>
<path d="M576.363 471.211H550.182V497.371H576.363V471.211Z" fill="white"/>
<path d="M576.363 445.051H550.182V471.211H576.363V445.051Z" fill="white"/>
<path d="M576.363 418.844H550.182V445.051H576.363V418.844Z" fill="white"/>
<path d="M576.363 392.683H550.182V418.844H576.363V392.683Z" fill="white"/>
<path d="M576.363 366.524H550.182V392.684H576.363V366.524Z" fill="white"/>
<path d="M550.229 706.84H524V733.047H550.229V706.84Z" fill="white"/>
<path d="M550.229 680.633H524V706.793H550.229V680.633Z" fill="white"/>
<path d="M550.229 654.473H524V680.633H550.229V654.473Z" fill="white"/>
<path d="M550.229 628.312H524V654.473H550.229V628.312Z" fill="white"/>
<path d="M550.229 602.105H524V628.312H550.229V602.105Z" fill="white"/>
<path d="M550.229 575.945H524V602.106H550.229V575.945Z" fill="white"/>
<path d="M550.229 549.738H524V575.898H550.229V549.738Z" fill="white"/>
<path d="M550.229 523.578H524V549.739H550.229V523.578Z" fill="white"/>
<path d="M550.229 497.371H524V523.578H550.229V497.371Z" fill="white"/>
<path d="M550.229 471.211H524V497.371H550.229V471.211Z" fill="white"/>
<path d="M550.229 445.051H524V471.211H550.229V445.051Z" fill="white"/>
<path d="M550.229 418.844H524V445.051H550.229V418.844Z" fill="#E2D7D7"/>
<path d="M550.229 392.683H524V418.844H550.229V392.683Z" fill="#E2D7D7"/>
<path d="M550.229 366.524H524V392.684H550.229V366.524Z" fill="#E2D7D7"/>
<path d="M550.229 340.316H524V366.477H550.229V340.316Z" fill="#E2D7D7"/>
<path d="M550.229 104.734H524V130.941H550.229V104.734Z" fill="#FFC0C0"/>
<path d="M550.229 78.5273H524V104.688H550.229V78.5273Z" fill="white"/>
<path d="M550.229 52.3672H524V78.5273H550.229V52.3672Z" fill="white"/>
<path d="M523.954 706.84H497.772V733.047H523.954V706.84Z" fill="white"/>
<path d="M523.954 680.633H497.772V706.793H523.954V680.633Z" fill="white"/>
<path d="M523.954 654.473H497.772V680.633H523.954V654.473Z" fill="white"/>
<path d="M523.954 628.312H497.772V654.473H523.954V628.312Z" fill="white"/>
<path d="M523.954 602.105H497.772V628.312H523.954V602.105Z" fill="white"/>
<path d="M523.954 575.945H497.772V602.106H523.954V575.945Z" fill="white"/>
<path d="M523.954 549.738H497.772V575.898H523.954V549.738Z" fill="white"/>
<path d="M523.954 523.578H497.772V549.739H523.954V523.578Z" fill="white"/>
<path d="M523.954 497.371H497.772V523.578H523.954V497.371Z" fill="white"/>
<path d="M523.954 471.211H497.772V497.371H523.954V471.211Z" fill="#E2D7D7"/>
<path d="M523.954 445.051H497.772V471.211H523.954V445.051Z" fill="#E2D7D7"/>
<path d="M523.954 418.844H497.772V445.051H523.954V418.844Z" fill="#E2D7D7"/>
<path d="M523.954 392.683H497.772V418.844H523.954V392.683Z" fill="white"/>
<path d="M523.954 366.524H497.772V392.684H523.954V366.524Z" fill="white"/>
<path d="M523.954 340.316H497.772V366.477H523.954V340.316Z" fill="white"/>
<path d="M523.954 314.156H497.772V340.363H523.954V314.156Z" fill="white"/>
<path d="M523.954 287.949H497.772V314.109H523.954V287.949Z" fill="white"/>
<path d="M523.954 261.789H497.772V287.949H523.954V261.789Z" fill="white"/>
<path d="M523.954 130.895H497.772V157.055H523.954V130.895Z" fill="#FFC0C0"/>
<path d="M523.954 104.734H497.772V130.941H523.954V104.734Z" fill="#FFC0C0"/>
<path d="M523.954 78.5273H497.772V104.688H523.954V78.5273Z" fill="white"/>
<path d="M497.773 706.84H471.591V733.047H497.773V706.84Z" fill="white"/>
<path d="M497.773 680.633H471.591V706.793H497.773V680.633Z" fill="white"/>
<path d="M497.773 654.473H471.591V680.633H497.773V654.473Z" fill="white"/>
<path d="M497.773 628.312H471.591V654.473H497.773V628.312Z" fill="white"/>
<path d="M497.773 602.105H471.591V628.312H497.773V602.105Z" fill="white"/>
<path d="M497.773 575.945H471.591V602.106H497.773V575.945Z" fill="white"/>
<path d="M497.773 549.738H471.591V575.898H497.773V549.738Z" fill="#E2D7D7"/>
<path d="M497.773 523.578H471.591V549.739H497.773V523.578Z" fill="#E2D7D7"/>
<path d="M497.773 497.371H471.591V523.578H497.773V497.371Z" fill="#E2D7D7"/>
<path d="M497.773 471.211H471.591V497.371H497.773V471.211Z" fill="#E2D7D7"/>
<path d="M497.773 445.051H471.591V471.211H497.773V445.051Z" fill="#E2D7D7"/>
<path d="M497.773 418.844H471.591V445.051H497.773V418.844Z" fill="#E2D7D7"/>
<path d="M497.773 157.055H471.591V183.215H497.773V157.055Z" fill="#FFC0C0"/>
<path d="M497.773 130.895H471.591V157.055H497.773V130.895Z" fill="#FFC0C0"/>
<path d="M497.773 104.734H471.591V130.941H497.773V104.734Z" fill="white"/>
<path d="M497.773 78.5273H471.591V104.688H497.773V78.5273Z" fill="white"/>
<path d="M471.591 706.84H445.41V733.047H471.591V706.84Z" fill="white"/>
<path d="M471.591 680.633H445.41V706.793H471.591V680.633Z" fill="white"/>
<path d="M471.591 654.473H445.41V680.633H471.591V654.473Z" fill="white"/>
<path d="M471.591 628.312H445.41V654.473H471.591V628.312Z" fill="white"/>
<path d="M471.591 602.105H445.41V628.312H471.591V602.105Z" fill="#E2D7D7"/>
<path d="M471.591 575.945H445.41V602.106H471.591V575.945Z" fill="#E2D7D7"/>
<path d="M471.591 549.738H445.41V575.898H471.591V549.738Z" fill="#E2D7D7"/>
<path d="M471.591 523.578H445.41V549.739H471.591V523.578Z" fill="#E2D7D7"/>
<path d="M471.591 130.895H445.41V157.055H471.591V130.895Z" fill="white"/>
<path d="M471.591 104.734H445.41V130.941H471.591V104.734Z" fill="white"/>
<path d="M445.41 706.84H419.182V733.047H445.41V706.84Z" fill="white"/>
<path d="M445.41 680.633H419.182V706.793H445.41V680.633Z" fill="white"/>
<path d="M445.41 654.473H419.182V680.633H445.41V654.473Z" fill="white"/>
<path d="M445.41 628.312H419.182V654.473H445.41V628.312Z" fill="#E2D7D7"/>
<path d="M445.41 602.105H419.182V628.312H445.41V602.105Z" fill="#E2D7D7"/>
<path d="M445.41 575.945H419.182V602.106H445.41V575.945Z" fill="#E2D7D7"/>
<path d="M445.41 549.738H419.182V575.898H445.41V549.738Z" fill="#E2D7D7"/>
<path d="M419.182 706.84H393V733.047H419.182V706.84Z" fill="white"/>
<path d="M419.182 680.633H393V706.793H419.182V680.633Z" fill="white"/>
<path d="M419.182 654.473H393V680.633H419.182V654.473Z" fill="white"/>
<path d="M419.182 628.312H393V654.473H419.182V628.312Z" fill="#E2D7D7"/>
<path d="M419.182 602.105H393V628.312H419.182V602.105Z" fill="#E2D7D7"/>
<path d="M393.001 706.84H366.819V733.047H393.001V706.84Z" fill="white"/>
<path d="M393.001 680.633H366.819V706.793H393.001V680.633Z" fill="white"/>
<path d="M393.001 654.473H366.819V680.633H393.001V654.473Z" fill="#E2D7D7"/>
<path d="M393.001 628.312H366.819V654.473H393.001V628.312Z" fill="#E2D7D7"/>
<path d="M366.772 706.84H340.591V733.047H366.772V706.84Z" fill="white"/>
<path d="M366.772 680.633H340.591V706.793H366.772V680.633Z" fill="white"/>
<path d="M366.772 654.473H340.591V680.633H366.772V654.473Z" fill="#E2D7D7"/>
<path d="M340.638 680.633H314.41V706.793H340.638V680.633Z" fill="white"/>
<path d="M340.638 654.473H314.41V680.633H340.638V654.473Z" fill="#E2D7D7"/>
<path d="M340.638 104.734H314.41V130.941H340.638V104.734Z" fill="#E2D7D7"/>
<path d="M340.638 78.5273H314.41V104.688H340.638V78.5273Z" fill="#E2D7D7"/>
<path d="M340.638 52.3672H314.41V78.5273H340.638V52.3672Z" fill="#E2D7D7"/>
<path d="M314.363 104.734H288.182V130.941H314.363V104.734Z" fill="#E2D7D7"/>
<path d="M314.363 78.5273H288.182V104.688H314.363V78.5273Z" fill="white"/>
<path d="M288.182 104.734H262.001V130.941H288.182V104.734Z" fill="white"/>
<path d="M288.182 78.5273H262.001V104.688H288.182V78.5273Z" fill="white"/>
<path d="M262.001 130.895H235.819V157.055H262.001V130.895Z" fill="white"/>
<path d="M262.001 104.734H235.819V130.941H262.001V104.734Z" fill="white"/>
<path d="M497.772 418.844H471.591V445.051H497.772V418.844Z" fill="white"/>
<path d="M497.772 392.683H471.591V418.844H497.772V392.683Z" fill="white"/>
<path d="M497.772 366.524H471.591V392.684H497.772V366.524Z" fill="white"/>
<path d="M497.772 340.316H471.591V366.477H497.772V340.316Z" fill="white"/>
<path d="M497.772 314.156H471.591V340.363H497.772V314.156Z" fill="white"/>
<path d="M497.772 287.949H471.591V314.109H497.772V287.949Z" fill="white"/>
<path d="M497.772 261.789H471.591V287.949H497.772V261.789Z" fill="white"/>
<path d="M497.772 235.629H471.591V261.789H497.772V235.629Z" fill="white"/>
<path d="M497.772 209.422H471.591V235.629H497.772V209.422Z" fill="white"/>
<path d="M497.772 183.262H471.591V209.422H497.772V183.262Z" fill="white"/>
<path d="M471.591 497.371H445.41V523.578H471.591V497.371Z" fill="white"/>
<path d="M471.591 471.211H445.41V497.371H471.591V471.211Z" fill="white"/>
<path d="M471.591 445.051H445.41V471.211H471.591V445.051Z" fill="white"/>
<path d="M471.591 418.844H445.41V445.051H471.591V418.844Z" fill="white"/>
<path d="M471.591 392.683H445.41V418.844H471.591V392.683Z" fill="white"/>
<path d="M471.591 366.524H445.41V392.684H471.591V366.524Z" fill="white"/>
<path d="M471.591 340.316H445.41V366.477H471.591V340.316Z" fill="white"/>
<path d="M471.591 314.156H445.41V340.363H471.591V314.156Z" fill="white"/>
<path d="M471.591 287.949H445.41V314.109H471.591V287.949Z" fill="white"/>
<path d="M471.591 261.789H445.41V287.949H471.591V261.789Z" fill="white"/>
<path d="M471.591 235.629H445.41V261.789H471.591V235.629Z" fill="white"/>
<path d="M471.591 209.422H445.41V235.629H471.591V209.422Z" fill="white"/>
<path d="M471.591 183.262H445.41V209.422H471.591V183.262Z" fill="white"/>
<path d="M471.591 157.055H445.41V183.215H471.591V157.055Z" fill="white"/>
<path d="M445.409 523.578H419.181V549.739H445.409V523.578Z" fill="white"/>
<path d="M445.409 497.371H419.181V523.578H445.409V497.371Z" fill="white"/>
<path d="M445.409 471.211H419.181V497.371H445.409V471.211Z" fill="white"/>
<path d="M445.409 445.051H419.181V471.211H445.409V445.051Z" fill="white"/>
<path d="M445.409 418.844H419.181V445.051H445.409V418.844Z" fill="white"/>
<path d="M445.409 392.683H419.181V418.844H445.409V392.683Z" fill="white"/>
<path d="M445.409 366.524H419.181V392.684H445.409V366.524Z" fill="white"/>
<path d="M445.409 340.316H419.181V366.477H445.409V340.316Z" fill="white"/>
<path d="M445.409 314.156H419.181V340.363H445.409V314.156Z" fill="white"/>
<path d="M445.409 287.949H419.181V314.109H445.409V287.949Z" fill="white"/>
<path d="M445.409 261.789H419.181V287.949H445.409V261.789Z" fill="white"/>
<path d="M445.409 235.629H419.181V261.789H445.409V235.629Z" fill="white"/>
<path d="M445.409 209.422H419.181V235.629H445.409V209.422Z" fill="white"/>
<path d="M445.409 183.262H419.181V209.422H445.409V183.262Z" fill="white"/>
<path d="M445.409 157.055H419.181V183.215H445.409V157.055Z" fill="white"/>
<path d="M445.409 130.895H419.181V157.055H445.409V130.895Z" fill="white"/>
<path d="M419.181 575.945H393V602.106H419.181V575.945Z" fill="white"/>
<path d="M419.181 549.738H393V575.898H419.181V549.738Z" fill="white"/>
<path d="M419.181 523.578H393V549.739H419.181V523.578Z" fill="white"/>
<path d="M419.181 497.371H393V523.578H419.181V497.371Z" fill="white"/>
<path d="M419.181 471.211H393V497.371H419.181V471.211Z" fill="white"/>
<path d="M419.181 445.051H393V471.211H419.181V445.051Z" fill="white"/>
<path d="M419.181 418.844H393V445.051H419.181V418.844Z" fill="white"/>
<path d="M419.181 392.683H393V418.844H419.181V392.683Z" fill="white"/>
<path d="M419.181 366.524H393V392.684H419.181V366.524Z" fill="white"/>
<path d="M419.181 340.316H393V366.477H419.181V340.316Z" fill="white"/>
<path d="M419.181 314.156H393V340.363H419.181V314.156Z" fill="white"/>
<path d="M419.181 287.949H393V314.109H419.181V287.949Z" fill="white"/>
<path d="M419.181 261.789H393V287.949H419.181V261.789Z" fill="white"/>
<path d="M419.181 235.629H393V261.789H419.181V235.629Z" fill="white"/>
<path d="M419.181 209.422H393V235.629H419.181V209.422Z" fill="white"/>
<path d="M419.181 183.262H393V209.422H419.181V183.262Z" fill="white"/>
<path d="M419.181 157.055H393V183.215H419.181V157.055Z" fill="white"/>
<path d="M419.181 130.895H393V157.055H419.181V130.895Z" fill="white"/>
<path d="M393 602.106H366.819V628.313H393V602.106Z" fill="white"/>
<path d="M393 575.945H366.819V602.106H393V575.945Z" fill="white"/>
<path d="M393 549.738H366.819V575.898H393V549.738Z" fill="white"/>
<path d="M393 523.578H366.819V549.739H393V523.578Z" fill="white"/>
<path d="M393 497.371H366.819V523.578H393V497.371Z" fill="white"/>
<path d="M393 471.211H366.819V497.371H393V471.211Z" fill="white"/>
<path d="M393 445.051H366.819V471.211H393V445.051Z" fill="white"/>
<path d="M393 418.844H366.819V445.051H393V418.844Z" fill="white"/>
<path d="M393 392.683H366.819V418.844H393V392.683Z" fill="white"/>
<path d="M393 366.524H366.819V392.684H393V366.524Z" fill="white"/>
<path d="M393 340.316H366.819V366.477H393V340.316Z" fill="white"/>
<path d="M393 314.156H366.819V340.363H393V314.156Z" fill="white"/>
<path d="M393 287.949H366.819V314.109H393V287.949Z" fill="white"/>
<path d="M393 261.789H366.819V287.949H393V261.789Z" fill="white"/>
<path d="M393 235.629H366.819V261.789H393V235.629Z" fill="white"/>
<path d="M393 209.422H366.819V235.629H393V209.422Z" fill="white"/>
<path d="M393 183.262H366.819V209.422H393V183.262Z" fill="white"/>
<path d="M393 157.055H366.819V183.215H393V157.055Z" fill="white"/>
<path d="M393 130.895H366.819V157.055H393V130.895Z" fill="white"/>
<path d="M366.772 628.312H340.591V654.473H366.772V628.312Z" fill="white"/>
<path d="M366.772 602.106H340.591V628.313H366.772V602.106Z" fill="white"/>
<path d="M366.772 575.945H340.591V602.106H366.772V575.945Z" fill="white"/>
<path d="M366.772 549.738H340.591V575.898H366.772V549.738Z" fill="white"/>
<path d="M366.772 523.578H340.591V549.739H366.772V523.578Z" fill="white"/>
<path d="M366.772 497.371H340.591V523.578H366.772V497.371Z" fill="white"/>
<path d="M366.772 471.211H340.591V497.371H366.772V471.211Z" fill="white"/>
<path d="M366.772 445.051H340.591V471.211H366.772V445.051Z" fill="white"/>
<path d="M366.772 418.844H340.591V445.051H366.772V418.844Z" fill="white"/>
<path d="M366.772 392.683H340.591V418.844H366.772V392.683Z" fill="white"/>
<path d="M366.772 366.524H340.591V392.684H366.772V366.524Z" fill="white"/>
<path d="M366.772 340.316H340.591V366.477H366.772V340.316Z" fill="white"/>
<path d="M366.772 314.156H340.591V340.363H366.772V314.156Z" fill="white"/>
<path d="M366.772 287.949H340.591V314.109H366.772V287.949Z" fill="white"/>
<path d="M366.772 261.789H340.591V287.949H366.772V261.789Z" fill="white"/>
<path d="M366.772 235.629H340.591V261.789H366.772V235.629Z" fill="white"/>
<path d="M366.772 209.422H340.591V235.629H366.772V209.422Z" fill="white"/>
<path d="M366.772 183.262H340.591V209.422H366.772V183.262Z" fill="white"/>
<path d="M366.772 157.055H340.591V183.215H366.772V157.055Z" fill="white"/>
<path d="M366.772 130.895H340.591V157.055H366.772V130.895Z" fill="white"/>
<path d="M340.637 628.312H314.409V654.473H340.637V628.312Z" fill="white"/>
<path d="M340.637 602.106H314.409V628.313H340.637V602.106Z" fill="white"/>
<path d="M340.637 575.945H314.409V602.106H340.637V575.945Z" fill="white"/>
<path d="M340.637 549.738H314.409V575.898H340.637V549.738Z" fill="white"/>
<path d="M340.637 523.578H314.409V549.739H340.637V523.578Z" fill="white"/>
<path d="M340.637 497.371H314.409V523.578H340.637V497.371Z" fill="white"/>
<path d="M340.637 471.211H314.409V497.371H340.637V471.211Z" fill="white"/>
<path d="M340.637 445.051H314.409V471.211H340.637V445.051Z" fill="white"/>
<path d="M340.637 418.844H314.409V445.051H340.637V418.844Z" fill="white"/>
<path d="M340.637 392.683H314.409V418.844H340.637V392.683Z" fill="white"/>
<path d="M340.637 366.524H314.409V392.684H340.637V366.524Z" fill="white"/>
<path d="M340.637 340.316H314.409V366.477H340.637V340.316Z" fill="white"/>
<path d="M340.637 314.156H314.409V340.363H340.637V314.156Z" fill="white"/>
<path d="M340.637 287.949H314.409V314.109H340.637V287.949Z" fill="white"/>
<path d="M340.637 261.789H314.409V287.949H340.637V261.789Z" fill="white"/>
<path d="M340.637 235.629H314.409V261.789H340.637V235.629Z" fill="white"/>
<path d="M340.637 209.422H314.409V235.629H340.637V209.422Z" fill="white"/>
<path d="M340.637 183.262H314.409V209.422H340.637V183.262Z" fill="white"/>
<path d="M340.637 157.055H314.409V183.215H340.637V157.055Z" fill="white"/>
<path d="M340.637 130.895H314.409V157.055H340.637V130.895Z" fill="white"/>
<path d="M314.363 628.312H288.182V654.473H314.363V628.312Z" fill="white"/>
<path d="M314.363 602.106H288.182V628.313H314.363V602.106Z" fill="white"/>
<path d="M314.363 575.945H288.182V602.106H314.363V575.945Z" fill="white"/>
<path d="M314.363 549.738H288.182V575.898H314.363V549.738Z" fill="white"/>
<path d="M314.363 523.578H288.182V549.739H314.363V523.578Z" fill="white"/>
<path d="M314.363 497.371H288.182V523.578H314.363V497.371Z" fill="white"/>
<path d="M314.363 471.211H288.182V497.371H314.363V471.211Z" fill="white"/>
<path d="M314.363 445.051H288.182V471.211H314.363V445.051Z" fill="white"/>
<path d="M314.363 418.844H288.182V445.051H314.363V418.844Z" fill="white"/>
<path d="M314.363 392.683H288.182V418.844H314.363V392.683Z" fill="white"/>
<path d="M314.363 366.524H288.182V392.684H314.363V366.524Z" fill="white"/>
<path d="M314.363 340.316H288.182V366.477H314.363V340.316Z" fill="white"/>
<path d="M314.363 314.156H288.182V340.363H314.363V314.156Z" fill="white"/>
<path d="M314.363 287.949H288.182V314.109H314.363V287.949Z" fill="white"/>
<path d="M314.363 261.789H288.182V287.949H314.363V261.789Z" fill="white"/>
<path d="M314.363 235.629H288.182V261.789H314.363V235.629Z" fill="white"/>
<path d="M314.363 209.422H288.182V235.629H314.363V209.422Z" fill="white"/>
<path d="M314.363 183.262H288.182V209.422H314.363V183.262Z" fill="white"/>
<path d="M314.363 157.055H288.182V183.215H314.363V157.055Z" fill="white"/>
<path d="M314.363 130.895H288.182V157.055H314.363V130.895Z" fill="white"/>
<path d="M288.181 628.312H262V654.473H288.181V628.312Z" fill="white"/>
<path d="M288.181 602.106H262V628.313H288.181V602.106Z" fill="white"/>
<path d="M288.181 575.945H262V602.106H288.181V575.945Z" fill="white"/>
<path d="M288.181 549.738H262V575.898H288.181V549.738Z" fill="white"/>
<path d="M288.181 523.578H262V549.739H288.181V523.578Z" fill="white"/>
<path d="M288.181 497.371H262V523.578H288.181V497.371Z" fill="white"/>
<path d="M288.181 471.211H262V497.371H288.181V471.211Z" fill="white"/>
<path d="M288.181 445.051H262V471.211H288.181V445.051Z" fill="white"/>
<path d="M288.181 418.844H262V445.051H288.181V418.844Z" fill="white"/>
<path d="M288.181 392.683H262V418.844H288.181V392.683Z" fill="white"/>
<path d="M288.181 366.524H262V392.684H288.181V366.524Z" fill="white"/>
<path d="M288.181 340.316H262V366.477H288.181V340.316Z" fill="white"/>
<path d="M288.181 314.156H262V340.363H288.181V314.156Z" fill="white"/>
<path d="M288.181 287.949H262V314.109H288.181V287.949Z" fill="white"/>
<path d="M288.181 261.789H262V287.949H288.181V261.789Z" fill="white"/>
<path d="M288.181 235.629H262V261.789H288.181V235.629Z" fill="white"/>
<path d="M288.181 209.422H262V235.629H288.181V209.422Z" fill="white"/>
<path d="M288.181 183.262H262V209.422H288.181V183.262Z" fill="white"/>
<path d="M288.181 157.055H262V183.215H288.181V157.055Z" fill="white"/>
<path d="M288.181 130.895H262V157.055H288.181V130.895Z" fill="white"/>
<path d="M262.001 628.312H235.819V654.473H262.001V628.312Z" fill="white"/>
<path d="M262.001 602.106H235.819V628.313H262.001V602.106Z" fill="white"/>
<path d="M262.001 575.945H235.819V602.106H262.001V575.945Z" fill="white"/>
<path d="M262.001 549.738H235.819V575.898H262.001V549.738Z" fill="white"/>
<path d="M262.001 523.578H235.819V549.739H262.001V523.578Z" fill="white"/>
<path d="M262.001 497.371H235.819V523.578H262.001V497.371Z" fill="white"/>
<path d="M262.001 471.211H235.819V497.371H262.001V471.211Z" fill="white"/>
<path d="M262.001 445.051H235.819V471.211H262.001V445.051Z" fill="white"/>
<path d="M262.001 418.844H235.819V445.051H262.001V418.844Z" fill="white"/>
<path d="M262.001 392.683H235.819V418.844H262.001V392.683Z" fill="white"/>
<path d="M262.001 366.524H235.819V392.684H262.001V366.524Z" fill="white"/>
<path d="M262.001 340.316H235.819V366.477H262.001V340.316Z" fill="white"/>
<path d="M262.001 314.156H235.819V340.363H262.001V314.156Z" fill="white"/>
<path d="M262.001 287.949H235.819V314.109H262.001V287.949Z" fill="white"/>
<path d="M262.001 261.789H235.819V287.949H262.001V261.789Z" fill="white"/>
<path d="M262.001 235.629H235.819V261.789H262.001V235.629Z" fill="white"/>
<path d="M262.001 209.422H235.819V235.629H262.001V209.422Z" fill="white"/>
<path d="M262.001 183.262H235.819V209.422H262.001V183.262Z" fill="white"/>
<path d="M262.001 157.055H235.819V183.215H262.001V157.055Z" fill="white"/>
<path d="M235.819 628.312H209.591V654.473H235.819V628.312Z" fill="white"/>
<path d="M235.819 602.106H209.591V628.313H235.819V602.106Z" fill="white"/>
<path d="M235.819 575.945H209.591V602.106H235.819V575.945Z" fill="white"/>
<path d="M235.819 549.738H209.591V575.898H235.819V549.738Z" fill="white"/>
<path d="M235.819 523.578H209.591V549.739H235.819V523.578Z" fill="white"/>
<path d="M235.819 497.371H209.591V523.578H235.819V497.371Z" fill="white"/>
<path d="M235.819 471.211H209.591V497.371H235.819V471.211Z" fill="white"/>
<path d="M235.819 445.051H209.591V471.211H235.819V445.051Z" fill="white"/>
<path d="M235.819 418.844H209.591V445.051H235.819V418.844Z" fill="white"/>
<path d="M235.819 392.683H209.591V418.844H235.819V392.683Z" fill="white"/>
<path d="M235.819 366.524H209.591V392.684H235.819V366.524Z" fill="white"/>
<path d="M235.819 340.316H209.591V366.477H235.819V340.316Z" fill="white"/>
<path d="M235.819 314.156H209.591V340.363H235.819V314.156Z" fill="white"/>
<path d="M235.819 287.949H209.591V314.109H235.819V287.949Z" fill="white"/>
<path d="M235.819 261.789H209.591V287.949H235.819V261.789Z" fill="white"/>
<path d="M235.819 235.629H209.591V261.789H235.819V235.629Z" fill="white"/>
<path d="M235.819 209.422H209.591V235.629H235.819V209.422Z" fill="white"/>
<path d="M235.819 183.262H209.591V209.422H235.819V183.262Z" fill="white"/>
<path d="M235.819 157.055H209.591V183.215H235.819V157.055Z" fill="white"/>
<path d="M209.59 628.312H183.409V654.473H209.59V628.312Z" fill="white"/>
<path d="M209.59 602.106H183.409V628.313H209.59V602.106Z" fill="white"/>
<path d="M209.59 575.945H183.409V602.106H209.59V575.945Z" fill="white"/>
<path d="M209.59 549.738H183.409V575.898H209.59V549.738Z" fill="white"/>
<path d="M209.59 523.578H183.409V549.739H209.59V523.578Z" fill="white"/>
<path d="M209.59 497.371H183.409V523.578H209.59V497.371Z" fill="white"/>
<path d="M209.59 471.211H183.409V497.371H209.59V471.211Z" fill="white"/>
<path d="M209.59 445.051H183.409V471.211H209.59V445.051Z" fill="white"/>
<path d="M209.59 418.844H183.409V445.051H209.59V418.844Z" fill="white"/>
<path d="M209.59 392.683H183.409V418.844H209.59V392.683Z" fill="white"/>
<path d="M209.59 366.524H183.409V392.684H209.59V366.524Z" fill="white"/>
<path d="M209.59 340.316H183.409V366.477H209.59V340.316Z" fill="white"/>
<path d="M209.59 314.156H183.409V340.363H209.59V314.156Z" fill="white"/>
<path d="M209.59 287.949H183.409V314.109H209.59V287.949Z" fill="white"/>
<path d="M209.59 261.789H183.409V287.949H209.59V261.789Z" fill="white"/>
<path d="M209.59 235.629H183.409V261.789H209.59V235.629Z" fill="white"/>
<path d="M209.59 209.422H183.409V235.629H209.59V209.422Z" fill="white"/>
<path d="M209.59 183.262H183.409V209.422H209.59V183.262Z" fill="white"/>
<path d="M183.363 628.312H157.182V654.473H183.363V628.312Z" fill="white"/>
<path d="M183.363 602.106H157.182V628.313H183.363V602.106Z" fill="white"/>
<path d="M183.363 575.945H157.182V602.106H183.363V575.945Z" fill="white"/>
<path d="M183.363 549.738H157.182V575.898H183.363V549.738Z" fill="white"/>
<path d="M183.363 523.578H157.182V549.739H183.363V523.578Z" fill="white"/>
<path d="M183.363 497.371H157.182V523.578H183.363V497.371Z" fill="white"/>
<path d="M183.363 471.211H157.182V497.371H183.363V471.211Z" fill="white"/>
<path d="M183.363 445.051H157.182V471.211H183.363V445.051Z" fill="white"/>
<path d="M183.363 418.844H157.182V445.051H183.363V418.844Z" fill="white"/>
<path d="M183.363 392.683H157.182V418.844H183.363V392.683Z" fill="white"/>
<path d="M183.363 366.524H157.182V392.684H183.363V366.524Z" fill="white"/>
<path d="M183.363 340.316H157.182V366.477H183.363V340.316Z" fill="white"/>
<path d="M183.363 314.156H157.182V340.363H183.363V314.156Z" fill="white"/>
<path d="M183.363 287.949H157.182V314.109H183.363V287.949Z" fill="white"/>
<path d="M183.363 261.789H157.182V287.949H183.363V261.789Z" fill="white"/>
<path d="M183.363 235.629H157.182V261.789H183.363V235.629Z" fill="white"/>
<path d="M157.181 628.312H131V654.473H157.181V628.312Z" fill="white"/>
<path d="M157.181 602.106H131V628.313H157.181V602.106Z" fill="white"/>
<path d="M157.181 575.945H131V602.106H157.181V575.945Z" fill="white"/>
<path d="M157.181 549.738H131V575.898H157.181V549.738Z" fill="white"/>
<path d="M157.181 523.578H131V549.739H157.181V523.578Z" fill="white"/>
<path d="M157.181 497.371H131V523.578H157.181V497.371Z" fill="white"/>
<path d="M157.181 471.211H131V497.371H157.181V471.211Z" fill="white"/>
<path d="M157.181 445.051H131V471.211H157.181V445.051Z" fill="white"/>
<path d="M157.181 418.844H131V445.051H157.181V418.844Z" fill="white"/>
<path d="M157.181 392.683H131V418.844H157.181V392.683Z" fill="white"/>
<path d="M157.181 366.524H131V392.684H157.181V366.524Z" fill="white"/>
<path d="M157.181 340.316H131V366.477H157.181V340.316Z" fill="white"/>
<path d="M157.181 314.156H131V340.363H157.181V314.156Z" fill="white"/>
<path d="M157.181 287.949H131V314.109H157.181V287.949Z" fill="white"/>
<path d="M131.047 628.312H104.818V654.473H131.047V628.312Z" fill="white"/>
<path d="M131.047 602.106H104.818V628.313H131.047V602.106Z" fill="white"/>
<path d="M131.047 575.945H104.818V602.106H131.047V575.945Z" fill="white"/>
<path d="M131.047 549.738H104.818V575.898H131.047V549.738Z" fill="white"/>
<path d="M131.047 523.578H104.818V549.739H131.047V523.578Z" fill="white"/>
<path d="M131.047 497.371H104.818V523.578H131.047V497.371Z" fill="white"/>
<path d="M131.047 471.211H104.818V497.371H131.047V471.211Z" fill="white"/>
<path d="M131.047 445.051H104.818V471.211H131.047V445.051Z" fill="white"/>
<path d="M131.047 418.844H104.818V445.051H131.047V418.844Z" fill="white"/>
<path d="M131.047 392.683H104.818V418.844H131.047V392.683Z" fill="white"/>
<path d="M131.047 366.524H104.818V392.684H131.047V366.524Z" fill="white"/>
<path d="M131.047 340.316H104.818V366.477H131.047V340.316Z" fill="white"/>
<path d="M104.772 628.312H78.5908V654.473H104.772V628.312Z" fill="white"/>
<path d="M104.772 602.106H78.5908V628.313H104.772V602.106Z" fill="white"/>
<path d="M104.772 575.945H78.5908V602.106H104.772V575.945Z" fill="white"/>
<path d="M104.772 549.738H78.5908V575.898H104.772V549.738Z" fill="white"/>
<path d="M104.772 523.578H78.5908V549.739H104.772V523.578Z" fill="white"/>
<path d="M104.772 497.371H78.5908V523.578H104.772V497.371Z" fill="white"/>
<path d="M104.772 471.211H78.5908V497.371H104.772V471.211Z" fill="white"/>
<path d="M104.772 445.051H78.5908V471.211H104.772V445.051Z" fill="white"/>
<path d="M104.772 418.844H78.5908V445.051H104.772V418.844Z" fill="white"/>
<path d="M104.772 392.683H78.5908V418.844H104.772V392.683Z" fill="white"/>
<path d="M78.5904 628.312H52.4092V654.473H78.5904V628.312Z" fill="white"/>
<path d="M78.5904 602.106H52.4092V628.313H78.5904V602.106Z" fill="white"/>
<path d="M78.5904 575.945H52.4092V602.106H78.5904V575.945Z" fill="white"/>
<path d="M78.5904 549.738H52.4092V575.898H78.5904V549.738Z" fill="white"/>
<path d="M78.5904 523.578H52.4092V549.739H78.5904V523.578Z" fill="white"/>
<path d="M78.5904 497.371H52.4092V523.578H78.5904V497.371Z" fill="white"/>
<path d="M78.5904 471.211H52.4092V497.371H78.5904V471.211Z" fill="white"/>
<path d="M78.5904 445.051H52.4092V471.211H78.5904V445.051Z" fill="white"/>
<path d="M78.5904 418.844H52.4092V445.051H78.5904V418.844Z" fill="white"/>
<path d="M78.5904 392.683H52.4092V418.844H78.5904V392.683Z" fill="white"/>
<path d="M52.4098 602.106H26.1816V628.313H52.4098V602.106Z" fill="white"/>
<path d="M52.4098 575.945H26.1816V602.106H52.4098V575.945Z" fill="white"/>
<path d="M52.4098 549.738H26.1816V575.898H52.4098V549.738Z" fill="white"/>
<path d="M52.4098 523.578H26.1816V549.739H52.4098V523.578Z" fill="white"/>
<path d="M52.4098 497.371H26.1816V523.578H52.4098V497.371Z" fill="white"/>
<path d="M52.4098 471.211H26.1816V497.371H52.4098V471.211Z" fill="white"/>
<path d="M52.4098 445.051H26.1816V471.211H52.4098V445.051Z" fill="white"/>
<path d="M52.4098 418.844H26.1816V445.051H52.4098V418.844Z" fill="white"/>
<path d="M26.1812 575.945H0V602.106H26.1812V575.945Z" fill="white"/>
<path d="M26.1812 549.738H0V575.898H26.1812V549.738Z" fill="white"/>
<path d="M26.1812 523.578H0V549.739H26.1812V523.578Z" fill="white"/>
<path d="M26.1812 497.371H0V523.578H26.1812V497.371Z" fill="white"/>
<path d="M26.1812 471.211H0V497.371H26.1812V471.211Z" fill="white"/>
<path d="M26.1812 445.051H0V471.211H26.1812V445.051Z" fill="white"/>
<path d="M340.638 706.84H314.41V733.047H340.638V706.84Z" fill="white"/>
<path d="M340.638 680.633H314.41V706.793H340.638V680.633Z" fill="white"/>
<path d="M314.363 706.84H288.182V733.047H314.363V706.84Z" fill="white"/>
<path d="M314.363 680.633H288.182V706.793H314.363V680.633Z" fill="white"/>
<path d="M209.59 471.211H183.409V497.371H209.59V471.211Z" fill="#3F2A5E"/>
<path d="M209.59 445.051H183.409V471.211H209.59V445.051Z" fill="#3F2A5E"/>
<path d="M104.772 471.211H78.5908V497.371H104.772V471.211Z" fill="#3F2A5E"/>
<path d="M104.772 445.051H78.5908V471.211H104.772V445.051Z" fill="#3F2A5E"/>
<path d="M576.363 287.949H550.182V314.11H576.363V287.949Z" fill="#353535"/>
<path d="M550.229 287.949H524V314.11H550.229V287.949Z" fill="#353535"/>
<path d="M550.229 261.789H524V287.949H550.229V261.789Z" fill="#353535"/>
<path d="M576.363 261.789H550.182V287.949H576.363V261.789Z" fill="#353535"/>
<path d="M550.229 235.629H524V261.789H550.229V235.629Z" fill="#353535"/>
<path d="M497.772 235.629H471.591V261.789H497.772V235.629Z" fill="#353535"/>
<path d="M497.772 261.789H471.591V287.949H497.772V261.789Z" fill="#353535"/>
<path d="M523.953 235.629H497.772V261.789H523.953V235.629Z" fill="#353535"/>
<path d="M523.953 261.789H497.772V287.949H523.953V261.789Z" fill="#353535"/>
<path d="M445.409 340.316H419.181V366.477H445.409V340.316Z" fill="#353535"/>
<path d="M419.182 340.316H393V366.477H419.182V340.316Z" fill="#353535"/>
<path d="M393 340.316H366.819V366.477H393V340.316Z" fill="#353535"/>
<path d="M366.772 340.316H340.591V366.477H366.772V340.316Z" fill="#353535"/>
<path d="M471.591 314.156H445.41V340.363H471.591V314.156Z" fill="#353535"/>
<path d="M471.591 261.789H445.41V287.949H471.591V261.789Z" fill="#353535"/>
<path d="M471.591 235.629H445.41V261.789H471.591V235.629Z" fill="#353535"/>
<path d="M471.591 287.949H445.41V314.11H471.591V287.949Z" fill="#353535"/>
<path d="M445.409 314.156H419.181V340.363H445.409V314.156Z" fill="#353535"/>
<path d="M445.409 287.949H419.181V314.11H445.409V287.949Z" fill="#353535"/>
<path d="M445.409 261.789H419.181V287.949H445.409V261.789Z" fill="#353535"/>
<path d="M445.409 235.629H419.181V261.789H445.409V235.629Z" fill="#353535"/>
<path d="M419.182 314.156H393V340.363H419.182V314.156Z" fill="#353535"/>
<path d="M419.182 287.949H393V314.11H419.182V287.949Z" fill="#353535"/>
<path d="M419.182 235.629H393V261.789H419.182V235.629Z" fill="#353535"/>
<path d="M419.182 261.789H393V287.949H419.182V261.789Z" fill="#353535"/>
<path d="M393 235.629H366.819V261.789H393V235.629Z" fill="#353535"/>
<path d="M393 287.949H366.819V314.11H393V287.949Z" fill="#353535"/>
<path d="M393 314.156H366.819V340.363H393V314.156Z" fill="#353535"/>
<path d="M393 261.789H366.819V287.949H393V261.789Z" fill="#353535"/>
<path d="M366.772 314.156H340.591V340.363H366.772V314.156Z" fill="#353535"/>
<path d="M366.772 235.629H340.591V261.789H366.772V235.629Z" fill="#353535"/>
<path d="M366.772 287.949H340.591V314.11H366.772V287.949Z" fill="#353535"/>
<path d="M366.772 261.789H340.591V287.949H366.772V261.789Z" fill="#353535"/>
<path d="M340.638 314.156H314.41V340.363H340.638V314.156Z" fill="#353535"/>
<path d="M340.638 235.629H314.41V261.789H340.638V235.629Z" fill="#353535"/>
<path d="M340.638 287.949H314.41V314.11H340.638V287.949Z" fill="#353535"/>
<path d="M340.638 261.789H314.41V287.949H340.638V261.789Z" fill="#353535"/>
<path d="M340.638 340.316H314.41V366.477H340.638V340.316Z" fill="#353535"/>
<path d="M314.363 314.156H288.182V340.363H314.363V314.156Z" fill="#353535"/>
<path d="M314.363 287.949H288.182V314.11H314.363V287.949Z" fill="#353535"/>
<path d="M288.181 261.789H262V287.949H288.181V261.789Z" fill="#353535"/>
<path d="M288.181 235.629H262V261.789H288.181V235.629Z" fill="#353535"/>
<path d="M262.001 235.629H235.819V261.789H262.001V235.629Z" fill="#353535"/>
<path d="M314.363 261.789H288.182V287.949H314.363V261.789Z" fill="#353535"/>
<path d="M314.363 235.629H288.182V261.789H314.363V235.629Z" fill="#353535"/>
<path d="M262.001 261.789H235.819V287.949H262.001V261.789Z" fill="#353535"/>
<path d="M262.001 314.156H235.819V340.363H262.001V314.156Z" fill="#353535"/>
<path d="M262.001 287.949H235.819V314.11H262.001V287.949Z" fill="#353535"/>
<path d="M235.819 340.316H209.591V366.477H235.819V340.316Z" fill="#353535"/>
<path d="M209.59 340.316H183.409V366.477H209.59V340.316Z" fill="#353535"/>
<path d="M183.363 340.316H157.182V366.477H183.363V340.316Z" fill="#353535"/>
<path d="M157.181 340.316H131V366.477H157.181V340.316Z" fill="#353535"/>
<path d="M131.047 340.316H104.818V366.477H131.047V340.316Z" fill="#353535"/>
<path d="M235.819 287.949H209.591V314.11H235.819V287.949Z" fill="#353535"/>
<path d="M235.819 261.789H209.591V287.949H235.819V261.789Z" fill="#353535"/>
<path d="M235.819 235.629H209.591V261.789H235.819V235.629Z" fill="#353535"/>
<path d="M209.59 235.629H183.409V261.789H209.59V235.629Z" fill="#353535"/>
<path d="M209.59 261.789H183.409V287.949H209.59V261.789Z" fill="#353535"/>
<path d="M209.59 287.949H183.409V314.11H209.59V287.949Z" fill="#353535"/>
<path d="M183.363 261.789H157.182V287.949H183.363V261.789Z" fill="#353535"/>
<path d="M183.363 235.629H157.182V261.789H183.363V235.629Z" fill="#353535"/>
<path d="M183.363 287.949H157.182V314.11H183.363V287.949Z" fill="#353535"/>
<path d="M157.181 287.949H131V314.11H157.181V287.949Z" fill="#353535"/>
<path d="M157.181 261.789H131V287.949H157.181V261.789Z" fill="#353535"/>
<path d="M157.181 235.629H131V261.789H157.181V235.629Z" fill="#353535"/>
<path d="M131.047 261.789H104.818V287.949H131.047V261.789Z" fill="#353535"/>
<path d="M131.047 287.949H104.818V314.11H131.047V287.949Z" fill="#353535"/>
<path d="M235.819 314.156H209.591V340.363H235.819V314.156Z" fill="#353535"/>
<path d="M209.59 314.156H183.409V340.363H209.59V314.156Z" fill="#353535"/>
<path d="M183.363 314.156H157.182V340.363H183.363V314.156Z" fill="#353535"/>
<path d="M157.181 314.156H131V340.363H157.181V314.156Z" fill="#353535"/>
<path d="M131.047 314.156H104.818V340.363H131.047V314.156Z" fill="#353535"/>
<path d="M104.772 314.156H78.5908V340.363H104.772V314.156Z" fill="#353535"/>
<path d="M104.772 287.949H78.5908V314.11H104.772V287.949Z" fill="#353535"/>
<path d="M104.772 261.789H78.5908V287.949H104.772V261.789Z" fill="#353535"/>
<path d="M104.772 235.629H78.5908V261.789H104.772V235.629Z" fill="#353535"/>
<path d="M131.047 235.629H104.818V261.789H131.047V235.629Z" fill="#353535"/>
<path d="M471.591 209.422H445.41V235.629H471.591V209.422Z" fill="#E4DFE8"/>
<path d="M471.591 183.262H445.41V209.422H471.591V183.262Z" fill="#E4DFE8"/>
<path d="M52.4098 602.106H26.1816V628.313H52.4098V602.106Z" fill="#E4DFE8"/>
<path d="M235.819 628.312H209.591V654.473H235.819V628.312Z" fill="#E4DFE8"/>
<path d="M209.591 628.312H183.41V654.473H209.591V628.312Z" fill="#E4DFE8"/>
<path d="M262.001 628.312H235.819V654.473H262.001V628.312Z" fill="#E4DFE8"/>
<path d="M157.181 628.312H131V654.473H157.181V628.312Z" fill="#E4DFE8"/>
<path d="M131.047 628.312H104.819V654.473H131.047V628.312Z" fill="#E4DFE8"/>
<path d="M104.772 628.312H78.5908V654.473H104.772V628.312Z" fill="#E4DFE8"/>
<path d="M78.5904 628.312H52.4092V654.473H78.5904V628.312Z" fill="#E4DFE8"/>
<path d="M183.363 628.312H157.182V654.473H183.363V628.312Z" fill="#E4DFE8"/>
<path d="M419.182 549.738H393V575.898H419.182V549.738Z" fill="#E4DFE8"/>
<path d="M419.182 575.945H393V602.106H419.182V575.945Z" fill="#E4DFE8"/>
<path d="M393.001 602.106H366.819V628.313H393.001V602.106Z" fill="#E4DFE8"/>
<path d="M340.638 628.312H314.41V654.473H340.638V628.312Z" fill="#E4DFE8"/>
<path d="M366.772 628.312H340.591V654.473H366.772V628.312Z" fill="#E4DFE8"/>
<path d="M314.363 628.312H288.182V654.473H314.363V628.312Z" fill="#E4DFE8"/>
<path d="M288.182 628.312H262.001V654.473H288.182V628.312Z" fill="#E4DFE8"/>
<path d="M445.41 523.578H419.182V549.739H445.41V523.578Z" fill="#E4DFE8"/>
<path d="M471.591 471.211H445.41V497.371H471.591V471.211Z" fill="#E4DFE8"/>
<path d="M471.591 445.051H445.41V471.211H471.591V445.051Z" fill="#E4DFE8"/>
<path d="M471.591 497.371H445.41V523.578H471.591V497.371Z" fill="#E4DFE8"/>
<path d="M497.773 418.844H471.591V445.051H497.773V418.844Z" fill="#E4DFE8"/>
<path d="M523.954 366.524H497.772V392.684H523.954V366.524Z" fill="#E4DFE8"/>
<path d="M523.954 340.316H497.772V366.477H523.954V340.316Z" fill="#E4DFE8"/>
<path d="M523.954 392.683H497.772V418.844H523.954V392.683Z" fill="#E4DFE8"/>
<path d="M523.954 287.949H497.772V314.109H523.954V287.949Z" fill="#E4DFE8"/>
<path d="M523.954 314.156H497.772V340.363H523.954V314.156Z" fill="#E4DFE8"/>
<path d="M497.773 209.422H471.591V235.629H497.773V209.422Z" fill="#E4DFE8"/>
<path d="M497.773 183.262H471.591V209.422H497.773V183.262Z" fill="#E4DFE8"/>
<path d="M314.363 130.895H288.182V157.055H314.363V130.895Z" fill="#E4DFE8"/>
<path d="M340.638 130.895H314.41V157.055H340.638V130.895Z" fill="#E4DFE8"/>
<path d="M445.41 130.895H419.182V157.055H445.41V130.895Z" fill="#E4DFE8"/>
<path d="M419.182 130.895H393V157.055H419.182V130.895Z" fill="#E4DFE8"/>
<path d="M393.001 130.895H366.819V157.055H393.001V130.895Z" fill="#E4DFE8"/>
<path d="M366.772 130.895H340.591V157.055H366.772V130.895Z" fill="#E4DFE8"/>
<path d="M576.363 418.844H550.182V445.051H576.363V418.844Z" fill="#E4DFE8"/>
<path d="M602.591 445.051H576.41V471.211H602.591V445.051Z" fill="#E4DFE8"/>
<path d="M628.772 471.211H602.591V497.371H628.772V471.211Z" fill="#E4DFE8"/>
<path d="M628.772 497.371H602.591V523.578H628.772V497.371Z" fill="#E4DFE8"/>
<path d="M655.001 523.578H628.772V549.739H655.001V523.578Z" fill="#E4DFE8"/>
<path d="M655.001 549.738H628.772V575.898H655.001V549.738Z" fill="#E4DFE8"/>
<path d="M655.001 575.945H628.772V602.106H655.001V575.945Z" fill="#E4DFE8"/>
<path d="M681.182 602.106H655V628.313H681.182V602.106Z" fill="#E4DFE8"/>
<path d="M681.182 628.312H655V654.473H681.182V628.312Z" fill="#E4DFE8"/>
<path d="M681.182 654.473H655V680.633H681.182V654.473Z" fill="#E4DFE8"/>
<path d="M655.001 680.633H628.772V706.793H655.001V680.633Z" fill="#E4DFE8"/>
<path d="M681.182 680.633H655V706.793H681.182V680.633Z" fill="#E4DFE8"/>
<path d="M707.363 602.106H681.182V628.313H707.363V602.106Z" fill="#E4DFE8"/>
<path d="M707.363 654.473H681.182V680.633H707.363V654.473Z" fill="#E4DFE8"/>
<path d="M707.363 628.312H681.182V654.473H707.363V628.312Z" fill="#E4DFE8"/>
<path d="M681.182 575.945H655V602.106H681.182V575.945Z" fill="#E4DFE8"/>
<path d="M681.182 549.738H655V575.898H681.182V549.738Z" fill="#E4DFE8"/>
<path d="M681.182 523.578H655V549.739H681.182V523.578Z" fill="#E4DFE8"/>
<path d="M655.001 471.211H628.772V497.371H655.001V471.211Z" fill="#E4DFE8"/>
<path d="M655.001 497.371H628.772V523.578H655.001V497.371Z" fill="#E4DFE8"/>
<path d="M628.772 418.844H602.591V445.051H628.772V418.844Z" fill="#E4DFE8"/>
<path d="M628.772 445.051H602.591V471.211H628.772V445.051Z" fill="#E4DFE8"/>
<path d="M602.591 418.844H576.41V445.051H602.591V418.844Z" fill="#E4DFE8"/>
<path d="M576.363 392.683H550.182V418.844H576.363V392.683Z" fill="#E4DFE8"/>
<path d="M576.363 366.524H550.182V392.684H576.363V366.524Z" fill="#E4DFE8"/>
<path d="M235.819 104.734H209.591V130.941H235.819V104.734Z" fill="#531484"/>
<path d="M209.59 157.055H183.409V183.215H209.59V157.055Z" fill="#531484"/>
<path d="M235.819 130.895H209.591V157.055H235.819V130.895Z" fill="#531484"/>
<path d="M733.59 366.523H707.409V392.684H733.59V366.523Z" fill="#531484"/>
<path d="M707.362 366.523H681.181V392.684H707.362V366.523Z" fill="#531484"/>
<path d="M681.181 340.316H655V366.477H681.181V340.316Z" fill="#531484"/>
<path d="M785.953 392.684H759.771V418.844H785.953V392.684Z" fill="#531484"/>
<path d="M759.819 392.684H733.591V418.844H759.819V392.684Z" fill="#531484"/>
<path d="M785.953 366.523H759.771V392.684H785.953V366.523Z" fill="#531484"/>
<path d="M681.181 366.523H655V392.684H681.181V366.523Z" fill="#531484"/>
<path d="M707.362 471.211H681.181V497.371H707.362V471.211Z" fill="#531484"/>
<path d="M707.362 445.051H681.181V471.211H707.362V445.051Z" fill="#531484"/>
<path d="M759.819 418.844H733.591V445.051H759.819V418.844Z" fill="#531484"/>
<path d="M733.59 418.844H707.409V445.051H733.59V418.844Z" fill="#531484"/>
<path d="M707.362 418.844H681.181V445.051H707.362V418.844Z" fill="#531484"/>
<path d="M681.181 392.684H655V418.844H681.181V392.684Z" fill="#531484"/>
<path d="M681.181 418.844H655V445.051H681.181V418.844Z" fill="#531484"/>
<path d="M707.362 523.578H681.181V549.738H707.362V523.578Z" fill="#531484"/>
<path d="M681.181 445.051H655V471.211H681.181V445.051Z" fill="#531484"/>
<path d="M681.181 497.371H655V523.578H681.181V497.371Z" fill="#531484"/>
<path d="M655 418.844H628.771V445.051H655V418.844Z" fill="#531484"/>
<path d="M681.181 471.211H655V497.371H681.181V471.211Z" fill="#531484"/>
<path d="M655 471.211H628.771V497.371H655V471.211Z" fill="#531484"/>
<path d="M655 445.051H628.771V471.211H655V445.051Z" fill="#531484"/>
<path d="M628.771 418.844H602.59V445.051H628.771V418.844Z" fill="#531484"/>
<path d="M550.228 366.523H524V392.684H550.228V366.523Z" fill="#531484"/>
<path d="M550.228 392.684H524V418.844H550.228V392.684Z" fill="#531484"/>
<path d="M628.771 445.051H602.59V471.211H628.771V445.051Z" fill="#531484"/>
<path d="M628.771 471.211H602.59V497.371H628.771V471.211Z" fill="#531484"/>
<path d="M576.362 392.684H550.181V418.844H576.362V392.684Z" fill="#531484"/>
<path d="M576.362 445.051H550.181V471.211H576.362V445.051Z" fill="#531484"/>
<path d="M576.362 418.844H550.181V445.051H576.362V418.844Z" fill="#531484"/>
<path d="M576.362 366.523H550.181V392.684H576.362V366.523Z" fill="#531484"/>
<path d="M550.228 445.051H524V471.211H550.228V445.051Z" fill="#531484"/>
<path d="M523.953 497.371H497.771V523.578H523.953V497.371Z" fill="#531484"/>
<path d="M602.591 445.051H576.409V471.211H602.591V445.051Z" fill="#531484"/>
<path d="M602.591 471.211H576.409V497.371H602.591V471.211Z" fill="#531484"/>
<path d="M602.591 418.844H576.409V445.051H602.591V418.844Z" fill="#531484"/>
<path d="M602.591 392.684H576.409V418.844H602.591V392.684Z" fill="#531484"/>
<path d="M576.362 497.371H550.181V523.578H576.362V497.371Z" fill="#531484"/>
<path d="M576.362 471.211H550.181V497.371H576.362V471.211Z" fill="#531484"/>
<path d="M550.228 497.371H524V523.578H550.228V497.371Z" fill="#531484"/>
<path d="M628.771 392.684H602.59V418.844H628.771V392.684Z" fill="#531484"/>
<path d="M759.819 235.629H733.591V261.789H759.819V235.629Z" fill="#531484"/>
<path d="M733.59 261.789H707.409V287.949H733.59V261.789Z" fill="#531484"/>
<path d="M707.362 287.949H681.181V314.109H707.362V287.949Z" fill="#531484"/>
<path d="M707.362 261.789H681.181V287.949H707.362V261.789Z" fill="#531484"/>
<path d="M707.362 235.629H681.181V261.789H707.362V235.629Z" fill="#531484"/>
<path d="M681.181 314.156H655V340.363H681.181V314.156Z" fill="#531484"/>
<path d="M681.181 287.949H655V314.109H681.181V287.949Z" fill="#531484"/>
<path d="M681.181 261.789H655V287.949H681.181V261.789Z" fill="#531484"/>
<path d="M681.181 235.629H655V261.789H681.181V235.629Z" fill="#531484"/>
<path d="M681.181 183.261H655V209.422H681.181V183.261Z" fill="#531484"/>
<path d="M681.181 157.055H655V183.215H681.181V157.055Z" fill="#531484"/>
<path d="M655 392.684H628.771V418.844H655V392.684Z" fill="#531484"/>
<path d="M655 366.523H628.771V392.684H655V366.523Z" fill="#531484"/>
<path d="M655 340.316H628.771V366.477H655V340.316Z" fill="#531484"/>
<path d="M655 314.156H628.771V340.363H655V314.156Z" fill="#531484"/>
<path d="M655 287.949H628.771V314.109H655V287.949Z" fill="#531484"/>
<path d="M655 261.789H628.771V287.949H655V261.789Z" fill="#531484"/>
<path d="M655 235.629H628.771V261.789H655V235.629Z" fill="#531484"/>
<path d="M655 183.261H628.771V209.422H655V183.261Z" fill="#531484"/>
<path d="M628.771 366.523H602.59V392.684H628.771V366.523Z" fill="#531484"/>
<path d="M628.771 340.316H602.59V366.477H628.771V340.316Z" fill="#531484"/>
<path d="M628.771 314.156H602.59V340.363H628.771V314.156Z" fill="#531484"/>
<path d="M628.771 287.949H602.59V314.109H628.771V287.949Z" fill="#531484"/>
<path d="M628.771 261.789H602.59V287.949H628.771V261.789Z" fill="#531484"/>
<path d="M628.771 235.629H602.59V261.789H628.771V235.629Z" fill="#531484"/>
<path d="M628.771 183.261H602.59V209.422H628.771V183.261Z" fill="#531484"/>
<path d="M602.591 366.523H576.409V392.684H602.591V366.523Z" fill="#531484"/>
<path d="M602.591 340.316H576.409V366.477H602.591V340.316Z" fill="#531484"/>
<path d="M602.591 314.156H576.409V340.363H602.591V314.156Z" fill="#531484"/>
<path d="M602.591 287.949H576.409V314.109H602.591V287.949Z" fill="#531484"/>
<path d="M602.591 261.789H576.409V287.949H602.591V261.789Z" fill="#531484"/>
<path d="M602.591 235.629H576.409V261.789H602.591V235.629Z" fill="#531484"/>
<path d="M602.591 209.422H576.409V235.629H602.591V209.422Z" fill="#531484"/>
<path d="M576.362 340.316H550.181V366.477H576.362V340.316Z" fill="#531484"/>
<path d="M576.362 314.156H550.181V340.363H576.362V314.156Z" fill="#531484"/>
<path d="M576.362 235.629H550.181V261.789H576.362V235.629Z" fill="#531484"/>
<path d="M576.362 209.422H550.181V235.629H576.362V209.422Z" fill="#531484"/>
<path d="M576.362 183.261H550.181V209.422H576.362V183.261Z" fill="#531484"/>
<path d="M576.362 157.055H550.181V183.215H576.362V157.055Z" fill="#531484"/>
<path d="M550.228 314.156H524V340.363H550.228V314.156Z" fill="#531484"/>
<path d="M550.228 209.422H524V235.629H550.228V209.422Z" fill="#531484"/>
<path d="M550.228 183.261H524V209.422H550.228V183.261Z" fill="#531484"/>
<path d="M550.228 157.055H524V183.215H550.228V157.055Z" fill="#531484"/>
<path d="M550.228 130.895H524V157.055H550.228V130.895Z" fill="#531484"/>
<path d="M523.953 209.422H497.771V235.629H523.953V209.422Z" fill="#531484"/>
<path d="M523.953 183.261H497.771V209.422H523.953V183.261Z" fill="#531484"/>
<path d="M523.953 157.055H497.771V183.215H523.953V157.055Z" fill="#531484"/>
<path d="M471.59 78.5273H445.409V104.688H471.59V78.5273Z" fill="#531484"/>
<path d="M445.409 104.734H419.181V130.941H445.409V104.734Z" fill="#531484"/>
<path d="M445.409 78.5273H419.181V104.688H445.409V78.5273Z" fill="#531484"/>
<path d="M419.181 104.734H393V130.941H419.181V104.734Z" fill="#531484"/>
<path d="M419.181 78.5273H393V104.688H419.181V78.5273Z" fill="#531484"/>
<path d="M393 130.895H366.818V157.055H393V130.895Z" fill="#531484"/>
<path d="M393 104.734H366.818V130.941H393V104.734Z" fill="#531484"/>
<path d="M393 78.5273H366.818V104.688H393V78.5273Z" fill="#531484"/>
<path d="M366.772 209.422H340.591V235.629H366.772V209.422Z" fill="#531484"/>
<path d="M366.772 130.895H340.591V157.055H366.772V130.895Z" fill="#531484"/>
<path d="M366.772 104.734H340.591V130.941H366.772V104.734Z" fill="#531484"/>
<path d="M366.772 78.5273H340.591V104.688H366.772V78.5273Z" fill="#531484"/>
<path d="M340.637 209.422H314.409V235.629H340.637V209.422Z" fill="#531484"/>
<path d="M340.637 183.261H314.409V209.422H340.637V183.261Z" fill="#531484"/>
<path d="M340.637 130.895H314.409V157.055H340.637V130.895Z" fill="#531484"/>
<path d="M340.637 104.734H314.409V130.941H340.637V104.734Z" fill="#531484"/>
<path d="M314.362 209.422H288.181V235.629H314.362V209.422Z" fill="#531484"/>
<path d="M314.362 183.261H288.181V209.422H314.362V183.261Z" fill="#531484"/>
<path d="M314.362 157.055H288.181V183.215H314.362V157.055Z" fill="#531484"/>
<path d="M314.362 130.895H288.181V157.055H314.362V130.895Z" fill="#531484"/>
<path d="M314.362 104.734H288.181V130.941H314.362V104.734Z" fill="#531484"/>
<path d="M288.181 183.261H262V209.422H288.181V183.261Z" fill="#531484"/>
<path d="M288.181 157.055H262V183.215H288.181V157.055Z" fill="#531484"/>
<path d="M288.181 130.895H262V157.055H288.181V130.895Z" fill="#531484"/>
<path d="M262 183.261H235.818V209.422H262V183.261Z" fill="#531484"/>
<path d="M262 157.055H235.818V183.215H262V157.055Z" fill="#531484"/>
<path d="M262 130.895H235.818V157.055H262V130.895Z" fill="#531484"/>
<path d="M576.363 261.789H550.182V287.949H576.363V261.789Z" fill="#232323"/>
<path d="M576.363 287.949H550.182V314.109H576.363V287.949Z" fill="#232323"/>
<path d="M550.229 287.949H524V314.109H550.229V287.949Z" fill="#232323"/>
<path d="M550.229 261.789H524V287.949H550.229V261.789Z" fill="#232323"/>
<path d="M550.229 235.629H524V261.789H550.229V235.629Z" fill="#232323"/>
<path d="M523.953 261.789H497.772V287.949H523.953V261.789Z" fill="#232323"/>
<path d="M523.953 235.629H497.772V261.789H523.953V235.629Z" fill="#232323"/>
<path d="M497.772 261.789H471.591V287.949H497.772V261.789Z" fill="#232323"/>
<path d="M497.772 235.629H471.591V261.789H497.772V235.629Z" fill="#232323"/>
<path d="M471.591 235.629H445.41V261.789H471.591V235.629Z" fill="#232323"/>
<path d="M471.591 261.789H445.41V287.949H471.591V261.789Z" fill="#232323"/>
<path d="M471.591 287.949H445.41V314.109H471.591V287.949Z" fill="#232323"/>
<path d="M471.591 314.156H445.41V340.363H471.591V314.156Z" fill="#232323"/>
<path d="M445.409 340.316H419.181V366.477H445.409V340.316Z" fill="#232323"/>
<path d="M759.819 392.684H733.591V418.844H759.819V392.684Z" fill="#812DA5"/>
<path d="M759.819 235.629H733.591V261.789H759.819V235.629Z" fill="#812DA5"/>
<path d="M733.59 418.844H707.409V445.051H733.59V418.844Z" fill="#812DA5"/>
<path d="M733.59 261.789H707.409V287.949H733.59V261.789Z" fill="#812DA5"/>
<path d="M707.363 445.051H681.182V471.211H707.363V445.051Z" fill="#812DA5"/>
<path d="M707.363 287.949H681.182V314.109H707.363V287.949Z" fill="#812DA5"/>
<path d="M707.363 235.629H681.182V261.789H707.363V235.629Z" fill="#812DA5"/>
<path d="M681.181 471.211H655V497.371H681.181V471.211Z" fill="#812DA5"/>
<path d="M681.181 445.051H655V471.211H681.181V445.051Z" fill="#812DA5"/>
<path d="M681.181 392.684H655V418.844H681.181V392.684Z" fill="#812DA5"/>
<path d="M681.181 366.523H655V392.684H681.181V366.523Z" fill="#812DA5"/>
<path d="M681.181 340.316H655V366.477H681.181V340.316Z" fill="#812DA5"/>
<path d="M681.181 314.156H655V340.363H681.181V314.156Z" fill="#812DA5"/>
<path d="M681.181 261.789H655V287.949H681.181V261.789Z" fill="#812DA5"/>
<path d="M681.181 235.629H655V261.789H681.181V235.629Z" fill="#812DA5"/>
<path d="M681.181 157.055H655V183.215H681.181V157.055Z" fill="#812DA5"/>
<path d="M655.001 471.211H628.772V497.371H655.001V471.211Z" fill="#812DA5"/>
<path d="M655.001 445.051H628.772V471.211H655.001V445.051Z" fill="#812DA5"/>
<path d="M655.001 418.844H628.772V445.051H655.001V418.844Z" fill="#812DA5"/>
<path d="M655.001 366.523H628.772V392.684H655.001V366.523Z" fill="#812DA5"/>
<path d="M655.001 314.156H628.772V340.363H655.001V314.156Z" fill="#812DA5"/>
<path d="M655.001 261.789H628.772V287.949H655.001V261.789Z" fill="#812DA5"/>
<path d="M655.001 235.629H628.772V261.789H655.001V235.629Z" fill="#812DA5"/>
<path d="M655.001 183.261H628.772V209.422H655.001V183.261Z" fill="#812DA5"/>
<path d="M628.772 471.211H602.591V497.371H628.772V471.211Z" fill="#812DA5"/>
<path d="M628.772 418.844H602.591V445.051H628.772V418.844Z" fill="#812DA5"/>
<path d="M628.772 366.523H602.591V392.684H628.772V366.523Z" fill="#812DA5"/>
<path d="M628.772 340.316H602.591V366.477H628.772V340.316Z" fill="#812DA5"/>
<path d="M628.772 314.156H602.591V340.363H628.772V314.156Z" fill="#812DA5"/>
<path d="M628.772 235.629H602.591V261.789H628.772V235.629Z" fill="#812DA5"/>
<path d="M628.772 183.261H602.591V209.422H628.772V183.261Z" fill="#812DA5"/>
<path d="M602.591 471.211H576.41V497.371H602.591V471.211Z" fill="#812DA5"/>
<path d="M602.591 418.844H576.41V445.051H602.591V418.844Z" fill="#812DA5"/>
<path d="M602.591 392.684H576.41V418.844H602.591V392.684Z" fill="#812DA5"/>
<path d="M602.591 340.316H576.41V366.477H602.591V340.316Z" fill="#812DA5"/>
<path d="M602.591 287.949H576.41V314.109H602.591V287.949Z" fill="#812DA5"/>
<path d="M602.591 261.789H576.41V287.949H602.591V261.789Z" fill="#812DA5"/>
<path d="M602.591 235.629H576.41V261.789H602.591V235.629Z" fill="#812DA5"/>
<path d="M602.591 209.422H576.41V235.629H602.591V209.422Z" fill="#812DA5"/>
<path d="M576.363 471.211H550.182V497.371H576.363V471.211Z" fill="#812DA5"/>
<path d="M576.363 445.051H550.182V471.211H576.363V445.051Z" fill="#812DA5"/>
<path d="M576.363 392.684H550.182V418.844H576.363V392.684Z" fill="#812DA5"/>
<path d="M576.363 366.523H550.182V392.684H576.363V366.523Z" fill="#812DA5"/>
<path d="M576.363 340.316H550.182V366.477H576.363V340.316Z" fill="#812DA5"/>
<path d="M576.363 314.156H550.182V340.363H576.363V314.156Z" fill="#812DA5"/>
<path d="M576.363 235.629H550.182V261.789H576.363V235.629Z" fill="#812DA5"/>
<path d="M576.363 183.261H550.182V209.422H576.363V183.261Z" fill="#812DA5"/>
<path d="M576.363 157.055H550.182V183.215H576.363V157.055Z" fill="#812DA5"/>
<path d="M550.229 366.523H524V392.684H550.229V366.523Z" fill="#812DA5"/>
<path d="M550.229 314.156H524V340.363H550.229V314.156Z" fill="#812DA5"/>
<path d="M550.229 209.422H524V235.629H550.229V209.422Z" fill="#812DA5"/>
<path d="M550.229 157.055H524V183.215H550.229V157.055Z" fill="#812DA5"/>
<path d="M550.229 130.895H524V157.055H550.229V130.895Z" fill="#812DA5"/>
<path d="M523.953 209.422H497.772V235.629H523.953V209.422Z" fill="#812DA5"/>
<path d="M471.591 78.5273H445.41V104.688H471.591V78.5273Z" fill="#812DA5"/>
<path d="M445.409 104.734H419.181V130.941H445.409V104.734Z" fill="#812DA5"/>
<path d="M445.409 78.5273H419.181V104.688H445.409V78.5273Z" fill="#812DA5"/>
<path d="M419.182 130.895H393V157.055H419.182V130.895Z" fill="#812DA5"/>
<path d="M419.182 78.5273H393V104.688H419.182V78.5273Z" fill="#812DA5"/>
<path d="M393 287.949H366.819V314.109H393V287.949Z" fill="white"/>
<path d="M393 130.895H366.819V157.055H393V130.895Z" fill="#812DA5"/>
<path d="M393 78.5273H366.819V104.688H393V78.5273Z" fill="#812DA5"/>
<path d="M366.772 261.789H340.591V287.949H366.772V261.789Z" fill="white"/>
<path d="M366.772 209.422H340.591V235.629H366.772V209.422Z" fill="#812DA5"/>
<path d="M366.772 78.5273H340.591V104.688H366.772V78.5273Z" fill="#812DA5"/>
<path d="M340.638 287.949H314.41V314.109H340.638V287.949Z" fill="white"/>
<path d="M340.638 183.261H314.41V209.422H340.638V183.261Z" fill="#812DA5"/>
<path d="M340.638 104.734H314.41V130.941H340.638V104.734Z" fill="#812DA5"/>
<path d="M314.363 261.789H288.182V287.949H314.363V261.789Z" fill="white"/>
<path d="M314.363 157.055H288.182V183.215H314.363V157.055Z" fill="#812DA5"/>
<path d="M314.363 104.734H288.182V130.941H314.363V104.734Z" fill="#812DA5"/>
<path d="M288.181 130.895H262V157.055H288.181V130.895Z" fill="#812DA5"/>
<path d="M262.001 314.156H235.819V340.363H262.001V314.156Z" fill="#232323"/>
<path d="M262.001 287.949H235.819V314.109H262.001V287.949Z" fill="#232323"/>
<path d="M262.001 183.261H235.819V209.422H262.001V183.261Z" fill="#812DA5"/>
<path d="M262.001 157.055H235.819V183.215H262.001V157.055Z" fill="#812DA5"/>
<path d="M262.001 130.895H235.819V157.055H262.001V130.895Z" fill="#812DA5"/>
<path d="M235.819 340.316H209.591V366.477H235.819V340.316Z" fill="#232323"/>
<path d="M183.363 287.949H157.182V314.109H183.363V287.949Z" fill="white"/>
<path d="M157.181 261.789H131V287.949H157.181V261.789Z" fill="white"/>
<path d="M131.047 287.949H104.818V314.109H131.047V287.949Z" fill="white"/>
<path d="M104.772 261.789H78.5908V287.949H104.772V261.789Z" fill="white"/>
<path d="M288.181 0H262V26.207H288.181V0Z" fill="#C40F06"/>
<path d="M288.181 26.2068H262V52.3669H288.181V26.2068Z" fill="#C40F06"/>
<path d="M288.181 52.3672H262V78.5273H288.181V52.3672Z" fill="#C40F06"/>
<path d="M314.363 52.3672H288.182V78.5273H314.363V52.3672Z" fill="#E0C70E"/>
<path d="M288.181 78.5273H262V104.688H288.181V78.5273Z" fill="#E0C70E"/>
<path d="M314.363 78.5273H288.182V104.688H314.363V78.5273Z" fill="#3FAA00"/>
<path d="M288.181 104.734H262V130.941H288.181V104.734Z" fill="#3FAA00"/>
<path d="M314.363 104.734H288.182V130.941H314.363V104.734Z" fill="#00B6C4"/>
<path d="M288.181 130.895H262V157.055H288.181V130.895Z" fill="#00B6C4"/>
<path d="M314.363 130.895H288.182V157.055H314.363V130.895Z" fill="#0054CE"/>
<path d="M288.181 157.055H262V183.215H288.181V157.055Z" fill="#0054CE"/>
<path d="M314.363 157.055H288.182V183.215H314.363V157.055Z" fill="#6400CE"/>
</g>
<defs>
<clipPath id="clip0_1_28">
<rect width="786" height="733" fill="white"/>
</clipPath>
</defs>
</svg>
